<svg id="sliderUp" width="38" height="38" viewBox="0 0 38 38" fill="none" xmlns="http://www.w3.org/2000/svg">
<ellipse cx="19" cy="19" rx="19" ry="19" transform="matrix(0 -1 -1 0 38 38)" fill="white"/>
<path d="M18.3488 17.7166C18.434 17.6307 18.5354 17.5625 18.6471 17.5159C18.7588 17.4694 18.8786 17.4454 18.9996 17.4454C19.1206 17.4454 19.2404 17.4694 19.3521 17.5159C19.4638 17.5625 19.5652 17.6307 19.6504 17.7166L23.8488 21.9241C23.934 22.01 24.0354 22.0782 24.1471 22.1247C24.2588 22.1713 24.3786 22.1952 24.4996 22.1952C24.6206 22.1952 24.7404 22.1713 24.8521 22.1247C24.9638 22.0782 25.0652 22.01 25.1504 21.9241C25.3212 21.7523 25.417 21.52 25.417 21.2778C25.417 21.0357 25.3212 20.8033 25.1504 20.6316L20.9429 16.4241C20.4273 15.9091 19.7283 15.6198 18.9996 15.6198C18.2708 15.6198 17.5719 15.9091 17.0563 16.4241L12.8488 20.6316C12.6794 20.8023 12.5839 21.0328 12.5829 21.2733C12.5822 21.3939 12.6053 21.5135 12.651 21.6252C12.6966 21.7369 12.7638 21.8384 12.8488 21.9241C12.934 22.01 13.0353 22.0782 13.1471 22.1247C13.2588 22.1713 13.3786 22.1952 13.4996 22.1952C13.6206 22.1952 13.7404 22.1713 13.8521 22.1247C13.9638 22.0782 14.0652 22.01 14.1504 21.9241L18.3488 17.7166Z" fill="#4F2EE8"/>
</svg>
