<svg id="log-out" width="184" height="48" viewBox="0 0 184 48" fill="none" xmlns="http://www.w3.org/2000/svg">
<path d="M0.75 18C0.75 8.47309 8.47309 0.75 18 0.75H166C175.527 0.75 183.25 8.47309 183.25 18V30C183.25 39.5269 175.527 47.25 166 47.25H18C8.47308 47.25 0.75 39.5269 0.75 30V18Z" fill="white" stroke="#111111" stroke-width="1.5"/>
<path d="M14.994 29V19.2H16.478V27.824H20.93V29H14.994ZM24.8584 29.168C24.1958 29.168 23.5984 29.0187 23.0664 28.72C22.5438 28.412 22.1284 27.9873 21.8204 27.446C21.5124 26.8953 21.3584 26.256 21.3584 25.528C21.3584 24.8 21.5124 24.1653 21.8204 23.624C22.1378 23.0733 22.5624 22.6487 23.0944 22.35C23.6264 22.042 24.2191 21.888 24.8724 21.888C25.5351 21.888 26.1278 22.042 26.6504 22.35C27.1824 22.6487 27.6024 23.0733 27.9104 23.624C28.2278 24.1653 28.3864 24.8 28.3864 25.528C28.3864 26.256 28.2278 26.8953 27.9104 27.446C27.6024 27.9873 27.1824 28.412 26.6504 28.72C26.1184 29.0187 25.5211 29.168 24.8584 29.168ZM24.8584 27.894C25.2131 27.894 25.5398 27.8053 25.8384 27.628C26.1464 27.4507 26.3938 27.1893 26.5804 26.844C26.7671 26.4893 26.8604 26.0507 26.8604 25.528C26.8604 25.0053 26.7671 24.5713 26.5804 24.226C26.4031 23.8713 26.1604 23.6053 25.8524 23.428C25.5538 23.2507 25.2271 23.162 24.8724 23.162C24.5178 23.162 24.1864 23.2507 23.8784 23.428C23.5798 23.6053 23.3371 23.8713 23.1504 24.226C22.9638 24.5713 22.8704 25.0053 22.8704 25.528C22.8704 26.0507 22.9638 26.4893 23.1504 26.844C23.3371 27.1893 23.5798 27.4507 23.8784 27.628C24.1771 27.8053 24.5038 27.894 24.8584 27.894ZM31.9041 26.872C31.5401 26.872 31.2041 26.83 30.8961 26.746L30.2941 27.334C30.3968 27.3993 30.5228 27.4553 30.6721 27.502C30.8215 27.5487 31.0315 27.5907 31.3021 27.628C31.5728 27.6653 31.9415 27.7027 32.4081 27.74C33.3321 27.824 33.9995 28.048 34.4101 28.412C34.8208 28.7667 35.0261 29.2427 35.0261 29.84C35.0261 30.2507 34.9141 30.638 34.6901 31.002C34.4755 31.3753 34.1348 31.674 33.6681 31.898C33.2108 32.1313 32.6228 32.248 31.9041 32.248C30.9335 32.248 30.1448 32.0613 29.5381 31.688C28.9408 31.324 28.6421 30.7687 28.6421 30.022C28.6421 29.7327 28.7168 29.4433 28.8661 29.154C29.0248 28.874 29.2721 28.608 29.6081 28.356C29.4121 28.272 29.2395 28.1833 29.0901 28.09C28.9501 27.9873 28.8241 27.8847 28.7121 27.782V27.446L29.9161 26.214C29.3748 25.7473 29.1041 25.136 29.1041 24.38C29.1041 23.9227 29.2115 23.5073 29.4261 23.134C29.6501 22.7513 29.9721 22.448 30.3921 22.224C30.8121 22 31.3161 21.888 31.9041 21.888C32.2961 21.888 32.6601 21.944 32.9961 22.056H35.5861V23.036L34.3541 23.106C34.5781 23.4887 34.6901 23.9133 34.6901 24.38C34.6901 24.8467 34.5781 25.2667 34.3541 25.64C34.1395 26.0133 33.8221 26.312 33.4021 26.536C32.9915 26.76 32.4921 26.872 31.9041 26.872ZM31.9041 25.71C32.3335 25.71 32.6788 25.598 32.9401 25.374C33.2108 25.1407 33.3461 24.814 33.3461 24.394C33.3461 23.9647 33.2108 23.638 32.9401 23.414C32.6788 23.19 32.3335 23.078 31.9041 23.078C31.4655 23.078 31.1108 23.19 30.8401 23.414C30.5788 23.638 30.4481 23.9647 30.4481 24.394C30.4481 24.814 30.5788 25.1407 30.8401 25.374C31.1108 25.598 31.4655 25.71 31.9041 25.71ZM30.0421 29.882C30.0421 30.2833 30.2195 30.582 30.5741 30.778C30.9288 30.9833 31.3721 31.086 31.9041 31.086C32.4175 31.086 32.8328 30.974 33.1501 30.75C33.4675 30.5353 33.6261 30.246 33.6261 29.882C33.6261 29.6113 33.5188 29.378 33.3041 29.182C33.0895 28.9953 32.6835 28.8787 32.0861 28.832C31.6381 28.804 31.2415 28.762 30.8961 28.706C30.5695 28.8833 30.3455 29.0747 30.2241 29.28C30.1028 29.4853 30.0421 29.686 30.0421 29.882ZM42.5651 29.168C41.9025 29.168 41.3051 29.0187 40.7731 28.72C40.2505 28.412 39.8351 27.9873 39.5271 27.446C39.2191 26.8953 39.0651 26.256 39.0651 25.528C39.0651 24.8 39.2191 24.1653 39.5271 23.624C39.8445 23.0733 40.2691 22.6487 40.8011 22.35C41.3331 22.042 41.9258 21.888 42.5791 21.888C43.2418 21.888 43.8345 22.042 44.3571 22.35C44.8891 22.6487 45.3091 23.0733 45.6171 23.624C45.9345 24.1653 46.0931 24.8 46.0931 25.528C46.0931 26.256 45.9345 26.8953 45.6171 27.446C45.3091 27.9873 44.8891 28.412 44.3571 28.72C43.8251 29.0187 43.2278 29.168 42.5651 29.168ZM42.5651 27.894C42.9198 27.894 43.2465 27.8053 43.5451 27.628C43.8531 27.4507 44.1005 27.1893 44.2871 26.844C44.4738 26.4893 44.5671 26.0507 44.5671 25.528C44.5671 25.0053 44.4738 24.5713 44.2871 24.226C44.1098 23.8713 43.8671 23.6053 43.5591 23.428C43.2605 23.2507 42.9338 23.162 42.5791 23.162C42.2245 23.162 41.8931 23.2507 41.5851 23.428C41.2865 23.6053 41.0438 23.8713 40.8571 24.226C40.6705 24.5713 40.5771 25.0053 40.5771 25.528C40.5771 26.0507 40.6705 26.4893 40.8571 26.844C41.0438 27.1893 41.2865 27.4507 41.5851 27.628C41.8838 27.8053 42.2105 27.894 42.5651 27.894ZM49.7 29.168C48.86 29.168 48.1973 28.9067 47.712 28.384C47.236 27.8613 46.998 27.082 46.998 26.046V22.056H48.482V25.892C48.482 27.236 49.0327 27.908 50.134 27.908C50.6847 27.908 51.1373 27.712 51.492 27.32C51.8467 26.928 52.024 26.368 52.024 25.64V22.056H53.508V29H52.192L52.08 27.782C51.8653 28.2113 51.548 28.552 51.128 28.804C50.7173 29.0467 50.2413 29.168 49.7 29.168ZM57.7478 29C57.0665 29 56.5251 28.8367 56.1238 28.51C55.7225 28.174 55.5218 27.5813 55.5218 26.732V23.302H54.3318V22.056H55.5218L55.7038 20.292H57.0058V22.056H58.9658V23.302H57.0058V26.732C57.0058 27.1147 57.0851 27.3807 57.2438 27.53C57.4118 27.67 57.6965 27.74 58.0978 27.74H58.8958V29H57.7478Z" fill="#111111"/>
<path d="M153.333 24H166.667M166.667 24L161.667 19M166.667 24L161.667 29" stroke="#EAC645" stroke-width="2" stroke-linecap="round" stroke-linejoin="round"/>
</svg>
