<svg id="signup" width="184" height="48" viewBox="0 0 184 48" fill="none" xmlns="http://www.w3.org/2000/svg">
<path d="M0.75 18C0.75 8.47309 8.47309 0.75 18 0.75H166C175.527 0.75 183.25 8.47309 183.25 18V30C183.25 39.5269 175.527 47.25 166 47.25H18C8.47308 47.25 0.75 39.5269 0.75 30V18Z" fill="#4F2EE8" stroke="#111111" stroke-width="1.5"/>
<path d="M18.228 29.168C17.5093 29.168 16.8793 29.042 16.338 28.79C15.7967 28.538 15.372 28.1787 15.064 27.712C14.7653 27.2453 14.6113 26.69 14.602 26.046H16.17C16.1793 26.5687 16.3613 27.012 16.716 27.376C17.0707 27.74 17.57 27.922 18.214 27.922C18.7833 27.922 19.2267 27.7867 19.544 27.516C19.8707 27.236 20.034 26.8813 20.034 26.452C20.034 26.1067 19.9547 25.8267 19.796 25.612C19.6467 25.3973 19.4367 25.22 19.166 25.08C18.9047 24.94 18.6013 24.814 18.256 24.702C17.9107 24.59 17.5467 24.4687 17.164 24.338C16.408 24.086 15.8387 23.7593 15.456 23.358C15.0827 22.9567 14.896 22.4293 14.896 21.776C14.8867 21.2253 15.0127 20.7447 15.274 20.334C15.5447 19.9233 15.918 19.606 16.394 19.382C16.8793 19.1487 17.444 19.032 18.088 19.032C18.7227 19.032 19.278 19.1487 19.754 19.382C20.2393 19.6153 20.6173 19.942 20.888 20.362C21.1587 20.7727 21.2987 21.2533 21.308 21.804H19.74C19.74 21.552 19.6747 21.314 19.544 21.09C19.4133 20.8567 19.222 20.6653 18.97 20.516C18.718 20.3667 18.41 20.292 18.046 20.292C17.5793 20.2827 17.192 20.3993 16.884 20.642C16.5853 20.8847 16.436 21.2207 16.436 21.65C16.436 22.0327 16.548 22.3267 16.772 22.532C16.996 22.7373 17.304 22.91 17.696 23.05C18.088 23.1807 18.536 23.3347 19.04 23.512C19.5253 23.6707 19.9593 23.862 20.342 24.086C20.7247 24.31 21.028 24.604 21.252 24.968C21.4853 25.332 21.602 25.794 21.602 26.354C21.602 26.8487 21.476 27.3107 21.224 27.74C20.972 28.16 20.594 28.5053 20.09 28.776C19.586 29.0373 18.9653 29.168 18.228 29.168ZM23.4485 20.74C23.1685 20.74 22.9351 20.656 22.7485 20.488C22.5711 20.3107 22.4825 20.0913 22.4825 19.83C22.4825 19.5687 22.5711 19.354 22.7485 19.186C22.9351 19.0087 23.1685 18.92 23.4485 18.92C23.7285 18.92 23.9571 19.0087 24.1345 19.186C24.3211 19.354 24.4145 19.5687 24.4145 19.83C24.4145 20.0913 24.3211 20.3107 24.1345 20.488C23.9571 20.656 23.7285 20.74 23.4485 20.74ZM22.7065 29V22.056H24.1905V29H22.7065ZM28.4315 26.872C28.0675 26.872 27.7315 26.83 27.4235 26.746L26.8215 27.334C26.9242 27.3993 27.0502 27.4553 27.1995 27.502C27.3488 27.5487 27.5588 27.5907 27.8295 27.628C28.1002 27.6653 28.4688 27.7027 28.9355 27.74C29.8595 27.824 30.5268 28.048 30.9375 28.412C31.3482 28.7667 31.5535 29.2427 31.5535 29.84C31.5535 30.2507 31.4415 30.638 31.2175 31.002C31.0028 31.3753 30.6622 31.674 30.1955 31.898C29.7382 32.1313 29.1502 32.248 28.4315 32.248C27.4608 32.248 26.6722 32.0613 26.0655 31.688C25.4682 31.324 25.1695 30.7687 25.1695 30.022C25.1695 29.7327 25.2442 29.4433 25.3935 29.154C25.5522 28.874 25.7995 28.608 26.1355 28.356C25.9395 28.272 25.7668 28.1833 25.6175 28.09C25.4775 27.9873 25.3515 27.8847 25.2395 27.782V27.446L26.4435 26.214C25.9022 25.7473 25.6315 25.136 25.6315 24.38C25.6315 23.9227 25.7388 23.5073 25.9535 23.134C26.1775 22.7513 26.4995 22.448 26.9195 22.224C27.3395 22 27.8435 21.888 28.4315 21.888C28.8235 21.888 29.1875 21.944 29.5235 22.056H32.1135V23.036L30.8815 23.106C31.1055 23.4887 31.2175 23.9133 31.2175 24.38C31.2175 24.8467 31.1055 25.2667 30.8815 25.64C30.6668 26.0133 30.3495 26.312 29.9295 26.536C29.5188 26.76 29.0195 26.872 28.4315 26.872ZM28.4315 25.71C28.8608 25.71 29.2062 25.598 29.4675 25.374C29.7382 25.1407 29.8735 24.814 29.8735 24.394C29.8735 23.9647 29.7382 23.638 29.4675 23.414C29.2062 23.19 28.8608 23.078 28.4315 23.078C27.9928 23.078 27.6382 23.19 27.3675 23.414C27.1062 23.638 26.9755 23.9647 26.9755 24.394C26.9755 24.814 27.1062 25.1407 27.3675 25.374C27.6382 25.598 27.9928 25.71 28.4315 25.71ZM26.5695 29.882C26.5695 30.2833 26.7468 30.582 27.1015 30.778C27.4562 30.9833 27.8995 31.086 28.4315 31.086C28.9448 31.086 29.3602 30.974 29.6775 30.75C29.9948 30.5353 30.1535 30.246 30.1535 29.882C30.1535 29.6113 30.0462 29.378 29.8315 29.182C29.6168 28.9953 29.2108 28.8787 28.6135 28.832C28.1655 28.804 27.7688 28.762 27.4235 28.706C27.0968 28.8833 26.8728 29.0747 26.7515 29.28C26.6302 29.4853 26.5695 29.686 26.5695 29.882ZM32.8771 29V22.056H34.1931L34.3051 23.274C34.5198 22.8447 34.8325 22.5087 35.2431 22.266C35.6631 22.014 36.1438 21.888 36.6851 21.888C37.5251 21.888 38.1831 22.1493 38.6591 22.672C39.1445 23.1947 39.3871 23.974 39.3871 25.01V29H37.9171V25.164C37.9171 23.82 37.3665 23.148 36.2651 23.148C35.7145 23.148 35.2571 23.344 34.8931 23.736C34.5385 24.128 34.3611 24.688 34.3611 25.416V29H32.8771ZM46.1043 29.168C45.2643 29.168 44.6016 28.9067 44.1163 28.384C43.6403 27.8613 43.4023 27.082 43.4023 26.046V22.056H44.8863V25.892C44.8863 27.236 45.437 27.908 46.5383 27.908C47.089 27.908 47.5416 27.712 47.8963 27.32C48.251 26.928 48.4283 26.368 48.4283 25.64V22.056H49.9123V29H48.5963L48.4843 27.782C48.2696 28.2113 47.9523 28.552 47.5323 28.804C47.1216 29.0467 46.6456 29.168 46.1043 29.168ZM51.2401 32.08V22.056H52.5701L52.7241 23.134C52.9481 22.8073 53.2561 22.518 53.6481 22.266C54.0401 22.014 54.5441 21.888 55.1601 21.888C55.8321 21.888 56.4248 22.0467 56.9381 22.364C57.4514 22.6813 57.8528 23.1153 58.1421 23.666C58.4408 24.2167 58.5901 24.842 58.5901 25.542C58.5901 26.242 58.4408 26.8673 58.1421 27.418C57.8528 27.9593 57.4514 28.3887 56.9381 28.706C56.4248 29.014 55.8274 29.168 55.1461 29.168C54.6048 29.168 54.1241 29.0607 53.7041 28.846C53.2934 28.6313 52.9668 28.328 52.7241 27.936V32.08H51.2401ZM54.8941 27.88C55.5288 27.88 56.0514 27.6653 56.4621 27.236C56.8728 26.7973 57.0781 26.228 57.0781 25.528C57.0781 25.0707 56.9848 24.6647 56.7981 24.31C56.6114 23.9553 56.3548 23.68 56.0281 23.484C55.7014 23.2787 55.3234 23.176 54.8941 23.176C54.2594 23.176 53.7368 23.3953 53.3261 23.834C52.9248 24.2727 52.7241 24.8373 52.7241 25.528C52.7241 26.228 52.9248 26.7973 53.3261 27.236C53.7368 27.6653 54.2594 27.88 54.8941 27.88Z" fill="white"/>
<path d="M153.333 24H166.667M166.667 24L161.667 19M166.667 24L161.667 29" stroke="#EAC645" stroke-width="2" stroke-linecap="round" stroke-linejoin="round"/>
</svg>
